PathFileType	4	(X/Y/Z)	D:\TRACE\spotREDO_2-26-24\spot_justArm_Motion_3_5-platform.trc
DataRate	CameraRate	NumFrames	NumMarkers	Units	OrigDataRate	OrigDataStartFrame	OrigNumFrames
100.00	100.00	      66	5	mm	100.00	1	      7000
Frame#	Time	Left_Front			Right_Front			Left_Aft			Right_Aft			Post			
		X1	Y1	Z1	X2	Y2	Z2	X3	Y3	Z3	X4	Y4	Z4	X5	Y5	Z5	

1	0.000	-736.59613	99.42039	-539.13367	678.41998	93.96124	-455.23975	-806.77747	-107.53381	662.60193	762.90845	-101.91480	666.12134	-26.88428	788.84473	-828.31458	
2	0.010	-736.64880	99.43680	-539.14301	678.45416	93.99133	-455.22604	-806.78217	-107.55788	662.60028	762.96234	-101.94821	666.11847	-26.59483	788.82806	-828.37927	
3	0.020	-736.68390	99.44643	-539.10626	678.43982	93.96880	-455.23917	-806.81396	-107.62315	662.59192	762.99030	-101.92767	666.10461	-26.43266	788.74139	-828.41211	
4	0.030	-736.65637	99.43116	-539.13177	678.45288	93.99644	-455.23425	-806.77197	-107.60379	662.61975	762.95551	-101.90917	666.10040	-26.17686	788.64990	-828.48639	
5	0.040	-736.66162	99.43351	-539.10956	678.41650	94.04696	-455.23608	-806.74969	-107.60728	662.64996	762.97229	-101.87281	666.10675	-27.42299	789.01495	-828.17352	
6	0.050	-736.67188	99.44823	-539.14294	678.46454	93.94560	-455.25665	-806.75592	-107.55263	662.60382	762.97998	-101.91553	666.09033	-27.40848	789.00781	-828.19525	
7	0.060	-736.64905	99.36355	-539.13556	678.38379	94.03620	-455.23309	-806.78796	-107.52173	662.56274	762.94043	-101.87337	666.09668	-27.41472	789.05426	-828.19318	
8	0.070	-736.64752	99.44856	-539.13879	678.39886	93.93320	-455.24182	-806.81427	-107.47260	662.54321	762.97284	-101.93030	666.07507	-27.43525	789.06055	-828.19733	
9	0.080	-736.63159	99.41832	-539.15906	678.37531	93.96105	-455.28830	-806.78571	-107.52757	662.55182	762.88147	-101.89186	666.07410	-27.40617	789.07465	-828.22906	
10	0.090	-736.65424	99.46561	-539.14032	678.38422	93.94930	-455.28513	-806.79565	-107.51000	662.54889	762.93195	-101.90008	666.07166	-27.41371	789.09436	-828.22766	
11	0.100	-736.66644	99.45581	-539.13092	678.43573	93.95031	-455.26257	-806.77924	-107.53615	662.53412	762.95465	-101.90219	666.07141	-27.40628	789.05939	-828.21613	
12	0.110	-736.61945	99.45453	-539.14392	678.45245	93.99110	-455.27432	-806.80774	-107.53948	662.56036	762.96881	-101.89097	666.07465	-28.31976	789.38440	-827.97876	
13	0.120	-736.65704	99.44465	-539.13422	678.43060	93.97195	-455.25620	-806.74341	-107.52428	662.57098	762.90472	-101.90295	666.07385	-27.39762	789.05206	-828.18420	
14	0.130	-736.65308	99.45421	-539.13867	678.46252	93.96883	-455.22113	-806.77423	-107.56670	662.58331	762.93219	-101.92323	666.10571	-27.79484	789.10205	-828.06573	
15	0.140	-736.63934	99.42712	-539.17621	678.43958	93.95826	-455.26413	-806.81750	-107.60334	662.56885	762.97278	-101.88894	666.07751	-27.81898	789.06580	-828.04352	
16	0.150	-736.67914	99.42314	-539.15381	678.34998	93.94134	-455.29227	-806.82532	-107.59960	662.53339	762.90839	-101.92664	666.07971	-27.78344	789.01880	-828.04321	
17	0.160	-736.67944	99.46407	-539.15619	678.41290	93.97704	-455.25854	-806.81079	-107.59971	662.54559	762.96320	-101.94199	666.08008	-27.51320	789.01410	-828.12830	
18	0.170	-736.64532	99.44096	-539.15033	678.40576	94.05466	-455.23721	-806.81989	-107.62267	662.57257	762.91406	-101.93347	666.12170	-27.33726	788.98535	-828.19897	
19	0.180	-736.65234	99.45800	-539.13422	678.46106	93.94661	-455.25259	-806.82813	-107.64780	662.56647	762.96326	-101.94414	666.09167	-27.37015	789.05029	-828.17047	
20	0.190	-736.68011	99.43670	-539.11316	678.47308	93.96598	-455.22409	-806.85278	-107.69848	662.55798	762.92438	-101.93024	666.09900	-27.44934	789.10248	-828.20654	
21	0.200	-736.72644	99.50009	-539.14978	678.48993	93.96876	-455.24030	-806.84528	-107.64426	662.54034	762.98273	-101.96702	666.07452	-27.31767	789.06354	-828.25818	
22	0.210	-736.64978	99.43255	-539.12311	678.43298	93.97443	-455.23474	-806.83160	-107.60283	662.55817	762.88672	-101.89034	666.10181	-27.43843	789.11682	-828.20569	
23	0.220	-736.71124	99.46595	-539.15106	678.44653	93.98668	-455.24277	-806.85065	-107.56120	662.52319	762.93835	-101.94251	666.08990	-27.44101	789.14630	-828.21570	
24	0.230	-736.67365	99.42474	-539.15179	678.43140	93.97880	-455.28000	-806.87054	-107.56084	662.48016	762.88739	-101.86327	666.13678	-27.46274	789.16199	-828.21014	
25	0.240	-736.67249	99.40961	-539.12982	678.35828	94.02336	-455.27988	-806.87836	-107.60677	662.53424	762.91174	-101.93900	666.06049	-27.47478	789.13318	-828.18982	
26	0.250	-736.68542	99.43788	-539.13818	678.40356	93.98776	-455.26328	-806.86090	-107.59361	662.48083	762.91699	-101.91019	666.05066	-27.47846	789.09589	-828.17145	
27	0.260	-736.70001	99.45932	-539.16559	678.47839	93.96909	-455.22247	-806.86316	-107.56986	662.47675	762.88013	-101.91949	666.06842	-27.39817	789.06299	-828.17664	
28	0.270	-736.70508	99.45544	-539.12939	678.45007	93.96812	-455.24286	-806.83612	-107.56730	662.49963	762.90228	-101.89497	666.07349	-27.44150	789.09735	-828.14838	
29	0.280	-736.67719	99.44302	-539.15417	678.45880	93.97617	-455.26248	-806.86420	-107.57219	662.46838	762.97766	-101.87220	666.06769	-27.35510	789.08691	-828.19086	
30	0.290	-736.69824	99.47475	-539.13788	678.36060	94.02632	-455.29117	-806.84723	-107.53009	662.48871	762.87683	-101.90578	666.08722	-27.44859	789.09241	-828.16803	
31	0.300	-736.66620	99.45844	-539.12445	678.38214	93.93738	-455.29077	-806.85242	-107.53509	662.54218	762.89673	-101.92197	666.06305	-27.44681	789.08862	-828.19501	
32	0.310	-736.68372	99.47051	-539.12964	678.48102	93.97826	-455.22607	-806.85675	-107.55445	662.47333	762.90326	-101.89831	666.07318	-27.33147	789.08673	-828.21832	
33	0.320	-736.63806	99.44362	-539.12750	678.42828	93.96629	-455.25620	-806.83606	-107.59326	662.51721	762.93024	-101.89080	666.08972	-27.36209	789.08832	-828.24554	
34	0.330	-736.68182	99.42622	-539.15887	678.44653	93.99809	-455.23956	-806.82379	-107.60670	662.54120	762.93500	-101.87940	666.09705	-27.34023	789.08844	-828.22748	
35	0.340	-736.65668	99.47020	-539.14355	678.47308	93.99095	-455.24438	-806.78088	-107.61801	662.61029	762.95624	-101.91711	666.10565	-27.29987	789.05835	-828.24969	
36	0.350	-736.70294	99.48381	-539.13702	678.37750	93.99715	-455.25992	-806.79114	-107.68120	662.63898	762.91650	-101.90936	666.10168	-27.31151	789.06494	-828.22418	
37	0.360	-736.65735	99.42904	-539.13092	678.39325	93.95319	-455.28040	-806.82642	-107.61263	662.54755	762.93091	-101.93470	666.11377	-27.17304	789.00781	-828.26611	
38	0.370	-736.66937	99.43520	-539.13916	678.47070	93.94102	-455.23230	-806.85382	-107.57358	662.48181	762.87195	-101.93969	666.08093	-27.17314	789.00043	-828.24200	
39	0.380	-736.68408	99.47210	-539.11737	678.40033	94.03105	-455.26706	-806.85400	-107.57285	662.47467	762.85620	-101.94472	666.08093	-27.16638	789.02637	-828.26410	
40	0.390	-736.65161	99.43260	-539.13086	678.42230	93.98392	-455.27087	-806.78973	-107.55164	662.53070	762.94885	-101.91345	666.09747	-27.14943	789.00793	-828.24725	
41	0.400	-736.66016	99.45135	-539.11420	678.43359	94.02972	-455.21545	-806.82733	-107.62364	662.57910	762.95135	-101.93974	666.08905	-27.16180	789.01233	-828.26556	
42	0.410	-736.65387	99.43643	-539.12732	678.41577	93.96033	-455.26053	-806.81976	-107.59039	662.56311	762.88696	-101.93837	666.08063	-27.20510	789.03015	-828.23285	
43	0.420	-736.63684	99.43127	-539.13098	678.42871	94.00427	-455.26718	-806.82507	-107.59946	662.49603	762.89941	-101.90143	666.07703	-27.20024	789.01776	-828.22852	
44	0.430	-736.59760	99.40643	-539.11157	678.39636	94.03284	-455.26840	-806.83655	-107.51598	662.46222	762.88586	-101.88484	666.09814	-27.29206	789.05750	-828.21124	
45	0.440	-736.61249	99.39938	-539.12811	678.36011	94.03870	-455.29233	-806.86810	-107.48793	662.42017	762.92682	-101.88084	666.07294	-27.31110	789.08649	-828.23328	
46	0.450	-736.61774	99.36225	-539.07953	678.41766	93.98875	-455.27042	-806.87244	-107.51502	662.42139	762.93854	-101.90708	666.06543	-27.31861	789.06781	-828.22778	
47	0.460	-736.65582	99.44265	-539.11572	678.40686	93.97076	-455.25031	-806.88092	-107.55798	662.46484	762.96075	-101.93914	666.06787	-27.43820	789.07587	-828.22644	
48	0.470	-736.54077	99.36767	-539.12604	678.45343	93.93832	-455.27197	-806.80890	-107.56087	662.51361	762.90857	-101.93852	666.06354	-27.38968	789.09637	-828.21838	
49	0.480	-736.54462	99.40715	-539.16162	678.47644	93.96935	-455.24539	-806.82861	-107.57590	662.52405	762.93512	-101.93064	666.06427	-27.37411	789.03778	-828.21649	
50	0.490	-736.56073	99.42805	-539.15796	678.41504	94.02573	-455.30835	-806.84070	-107.58141	662.50232	762.90906	-101.90148	666.06708	-27.42554	789.07770	-828.21313	
51	0.500	-736.51416	99.41542	-539.16199	678.46216	93.98309	-455.25824	-806.81244	-107.48840	662.54852	762.96259	-101.90483	666.08789	-27.35364	789.07062	-828.22089	
52	0.510	-736.52399	99.42930	-539.14166	678.47729	93.95372	-455.23395	-806.83374	-107.57930	662.54718	762.93805	-101.96259	666.08325	-27.39407	789.06262	-828.19635	
53	0.520	-736.55621	99.42447	-539.13489	678.39703	93.96156	-455.23764	-806.78497	-107.63287	662.65240	762.88428	-101.94064	666.11841	-27.45589	789.06409	-828.17535	
54	0.530	-736.47510	99.43250	-539.16870	678.41290	93.96579	-455.26898	-806.79321	-107.61673	662.58905	762.99677	-101.96353	666.08447	-27.40115	789.04730	-828.20886	
55	0.540	-736.45691	99.39743	-539.14777	678.44250	93.95501	-455.22037	-806.79156	-107.60004	662.54944	762.91705	-101.90406	666.10437	-27.46805	789.08459	-828.14392	
56	0.550	-736.50348	99.45876	-539.18805	678.43652	94.03854	-455.24323	-806.75507	-107.56294	662.59698	762.97614	-101.92089	666.08618	-27.41283	789.06805	-828.16968	
57	0.560	-736.45593	99.41306	-539.18561	678.41492	94.04064	-455.21573	-806.74030	-107.53788	662.58685	762.93640	-101.92515	666.07294	-27.44345	789.08783	-828.17163	
58	0.570	-736.47101	99.39633	-539.17529	678.39380	93.96329	-455.25922	-806.75500	-107.58131	662.57959	763.00098	-101.93658	666.06378	-27.51929	789.07794	-828.14532	
59	0.580	-736.53528	99.46687	-539.17255	678.39783	93.95101	-455.26236	-806.83069	-107.57700	662.52795	762.91010	-101.91181	666.06635	-27.45433	789.10229	-828.19025	
60	0.590	-736.53601	99.48525	-539.18848	678.40643	93.97150	-455.27658	-806.80634	-107.47150	662.44824	762.89508	-101.87267	666.06104	-27.39015	789.08789	-828.19202	
61	0.600	-736.52002	99.51133	-539.22882	678.40222	93.96171	-455.28064	-806.83191	-107.48109	662.42798	762.92017	-101.90756	666.05865	-27.41320	789.09363	-828.20807	
62	0.610	-736.54510	99.53401	-539.21576	678.44629	93.96069	-455.26120	-806.81580	-107.51134	662.44543	762.89722	-101.92546	666.04846	-27.38450	789.10455	-828.23547	
63	0.620	-736.50690	99.43854	-539.17761	678.37775	93.96573	-455.24759	-806.79114	-107.53405	662.51593	762.88989	-101.91438	666.06317	-27.42994	789.06421	-828.19867	
64	0.630	-736.57874	99.48623	-539.20966	678.40527	93.97655	-455.28442	-806.85461	-107.56789	662.52612	762.90002	-101.88702	666.08307	-27.70235	789.08307	-828.12006	
65	0.640	-736.55090	99.47808	-539.21924	678.42169	93.99613	-455.23502	-806.84985	-107.54495	662.50055	762.89368	-101.91592	666.05127	-27.86079	789.15308	-828.07715	
66	0.650	-736.53680	99.51286	-539.21643	678.35529	94.11196	-455.25256	-806.82025	-107.50316	662.48029	762.90546	-101.89368	666.08331	-27.82868	789.16699	-828.09052	
